<svg width="313" height="313" viewBox="0 0 313 313" fill="none" xmlns="http://www.w3.org/2000/svg">
<rect width="313" height="313" fill="url(#paint0_linear_1_2)"/>
<path d="M147.215 229.465L147.215 239.465L167.215 239.465L167.215 229.465L157.215 229.465L147.215 229.465ZM164.287 79.9289C160.381 76.0237 154.05 76.0237 150.144 79.9289L86.5048 143.569C82.5995 147.474 82.5995 153.805 86.5048 157.711C90.41 161.616 96.7417 161.616 100.647 157.711L157.215 101.142L213.784 157.711C217.689 161.616 224.021 161.616 227.926 157.711C231.831 153.805 231.831 147.474 227.926 143.569L164.287 79.9289ZM157.215 229.465L167.215 229.465L167.215 87L157.215 87L147.215 87L147.215 229.465L157.215 229.465Z" fill="white"/>
<defs>
<linearGradient id="paint0_linear_1_2" x1="156.5" y1="0" x2="156.5" y2="313" gradientUnits="userSpaceOnUse">
<stop stop-color="#5280FE"/>
<stop offset="1" stop-color="#2C41B8"/>
</linearGradient>
</defs>
</svg>
